<?xml version="1.0" encoding="utf-8"?>
<!-- Generator: Adobe Illustrator 17.0.2, SVG Export Plug-In . SVG Version: 6.00 Build 0)  -->
<!DOCTYPE svg PUBLIC "-//W3C//DTD SVG 1.1//EN" "http://www.w3.org/Graphics/SVG/1.1/DTD/svg11.dtd">
<svg version="1.1" id="Layer_1" xmlns="http://www.w3.org/2000/svg" xmlns:xlink="http://www.w3.org/1999/xlink" x="0px" y="0px"
	 width="21px" height="20px" viewBox="0 0 21 20" enable-background="new 0 0 21 20" xml:space="preserve" style="cursor:pointer;">
<g>
	<path fill="#545454" d="M17.615,7.096c0.408,0.951,0.613,1.949,0.613,2.993c0,1.045-0.205,2.042-0.613,2.994
		c-0.409,0.951-0.958,1.771-1.647,2.461c-0.69,0.689-1.51,1.239-2.461,1.647c-0.951,0.409-1.949,0.613-2.993,0.613
		c-1.152,0-2.247-0.243-3.285-0.728c-1.038-0.486-1.922-1.17-2.652-2.054c-0.047-0.067-0.069-0.142-0.065-0.226
		c0.003-0.083,0.032-0.152,0.085-0.206l1.376-1.386c0.067-0.06,0.15-0.09,0.251-0.09c0.107,0.014,0.184,0.054,0.231,0.121
		c0.489,0.636,1.088,1.128,1.798,1.477s1.463,0.522,2.26,0.522c0.696,0,1.361-0.136,1.994-0.407c0.633-0.271,1.18-0.638,1.643-1.1
		c0.462-0.462,0.829-1.009,1.1-1.642c0.271-0.633,0.407-1.297,0.407-1.994c0-0.696-0.135-1.361-0.407-1.994
		c-0.271-0.633-0.638-1.18-1.1-1.643c-0.462-0.462-1.01-0.829-1.643-1.1c-0.633-0.271-1.297-0.407-1.994-0.407
		c-0.656,0-1.286,0.119-1.889,0.356c-0.603,0.238-1.138,0.578-1.607,1.02l1.376,1.386C8.602,7.91,8.649,8.141,8.535,8.402
		C8.421,8.67,8.224,8.804,7.943,8.804h-4.5c-0.174,0-0.325-0.063-0.452-0.191C2.863,8.486,2.8,8.335,2.8,8.161v-4.5
		c0-0.281,0.134-0.479,0.402-0.593c0.261-0.114,0.492-0.067,0.693,0.141L5.2,4.505c0.716-0.676,1.535-1.201,2.456-1.572
		s1.874-0.558,2.858-0.558c1.044,0,2.042,0.205,2.993,0.613c0.951,0.409,1.771,0.958,2.461,1.647
		C16.658,5.325,17.207,6.146,17.615,7.096z M11.8,7.197v4.5c0,0.094-0.03,0.17-0.09,0.231c-0.061,0.06-0.137,0.09-0.231,0.09H8.264
		c-0.094,0-0.171-0.03-0.231-0.09c-0.061-0.061-0.09-0.137-0.09-0.231v-0.643c0-0.094,0.03-0.171,0.09-0.231
		c0.06-0.06,0.137-0.09,0.231-0.09h2.25V7.197c0-0.094,0.03-0.171,0.09-0.231c0.06-0.061,0.137-0.091,0.231-0.091h0.643
		c0.094,0,0.17,0.03,0.231,0.091C11.769,7.026,11.8,7.103,11.8,7.197z"/>
</g>
</svg>
