<?xml version="1.0" encoding="utf-8"?>
<!-- Generator: Adobe Illustrator 17.1.0, SVG Export Plug-In . SVG Version: 6.00 Build 0)  -->
<!DOCTYPE svg PUBLIC "-//W3C//DTD SVG 1.0//EN" "http://www.w3.org/TR/2001/REC-SVG-20010904/DTD/svg10.dtd">
<svg version="1.0" id="Layer_1" xmlns="http://www.w3.org/2000/svg" xmlns:xlink="http://www.w3.org/1999/xlink" x="0px" y="0px"
	 viewBox="0 0 313.5 33.25" enable-background="new 0 0 313.5 33.25" xml:space="preserve">
<path fill="#FFFFFF" d="M1.499,0.856v23.189h23.189V0.856H1.499z M11.991,11.703c-0.142,0.276-0.333,0.484-0.57,0.641
	c-0.243,0.155-0.505,0.241-0.793,0.26c-0.287,0.02-0.567-0.044-0.84-0.176c-0.274-0.147-0.485-0.33-0.639-0.576
	c-0.156-0.242-0.24-0.503-0.259-0.793c-0.019-0.288,0.035-0.566,0.175-0.841c0.136-0.268,0.332-0.485,0.577-0.64
	c0.243-0.154,0.504-0.24,0.793-0.258c0.287-0.021,0.562,0.04,0.843,0.176c0.266,0.144,0.482,0.332,0.638,0.575
	c0.154,0.245,0.239,0.503,0.258,0.792C12.185,11.149,12.127,11.433,11.991,11.703z M16.18,8.264
	c-0.13,0.239-0.287,0.448-0.486,0.615c-0.206,0.167-0.421,0.282-0.666,0.367c-0.241,0.077-0.49,0.108-0.744,0.093
	c-0.26-0.02-0.514-0.085-0.762-0.212c-0.242-0.125-0.446-0.289-0.614-0.487c-0.162-0.196-0.286-0.416-0.364-0.654
	c-0.081-0.251-0.115-0.495-0.095-0.752c0.018-0.264,0.093-0.511,0.209-0.757c0.132-0.245,0.29-0.451,0.486-0.616
	c0.199-0.168,0.418-0.292,0.661-0.36c0.245-0.084,0.494-0.113,0.748-0.099c0.261,0.02,0.51,0.094,0.755,0.211
	c0.245,0.133,0.452,0.291,0.621,0.489c0.162,0.195,0.285,0.415,0.36,0.661c0.079,0.24,0.112,0.483,0.099,0.747
	C16.373,7.763,16.298,8.012,16.18,8.264z M22.731,6.141c-0.162,0.317-0.379,0.589-0.636,0.809c-0.269,0.22-0.562,0.385-0.875,0.485
	c-0.324,0.105-0.647,0.142-0.994,0.124c-0.337-0.024-0.67-0.124-0.991-0.277c-0.322-0.173-0.591-0.379-0.815-0.644
	c-0.22-0.269-0.377-0.556-0.486-0.872c-0.105-0.323-0.149-0.652-0.123-0.993c0.024-0.335,0.115-0.672,0.277-0.988
	c0.167-0.326,0.379-0.594,0.641-0.816c0.261-0.225,0.549-0.385,0.872-0.482c0.322-0.105,0.649-0.147,0.992-0.12
	c0.347,0.019,0.672,0.113,1.002,0.273c0.314,0.169,0.592,0.379,0.804,0.644c0.224,0.26,0.381,0.552,0.488,0.874
	c0.103,0.312,0.144,0.64,0.126,0.987C22.984,5.486,22.894,5.815,22.731,6.141z"/>
<path fill="#FFFFFF" d="M35.822,24.045h-3.743V0.803h3.743V24.045z"/>
<path fill="#FFFFFF" d="M55.758,24.045h-3.759V12.85c0-1.404-0.274-2.453-0.821-3.144c-0.547-0.691-1.416-1.037-2.604-1.037
	c-1.583,0-2.74,0.484-3.473,1.449c-0.733,0.967-1.099,2.586-1.099,4.855v9.072H40.26V5.836h2.931l0.525,2.389h0.191
	c0.531-0.867,1.285-1.537,2.262-2.008c0.977-0.473,2.06-0.709,3.249-0.709c4.227,0,6.34,2.223,6.34,6.668V24.045z"/>
<path fill="#FFFFFF" d="M71.888,18.859c0,1.777-0.627,3.141-1.88,4.09c-1.253,0.949-3.047,1.424-5.383,1.424
	c-2.347,0-4.231-0.367-5.655-1.101v-3.344c2.07,0.988,3.999,1.483,5.782,1.483c2.304,0,3.456-0.719,3.456-2.156
	c0-0.461-0.127-0.846-0.383-1.152c-0.254-0.307-0.674-0.625-1.258-0.955c-0.584-0.328-1.396-0.701-2.437-1.119
	c-2.028-0.812-3.4-1.623-4.118-2.435c-0.716-0.815-1.075-1.867-1.075-3.162c0-1.557,0.607-2.768,1.823-3.629
	c1.217-0.861,2.87-1.293,4.962-1.293c2.07,0,4.029,0.434,5.877,1.301L70.39,9.723c-1.901-0.812-3.498-1.219-4.794-1.219
	c-1.975,0-2.962,0.582-2.962,1.746c0,0.57,0.257,1.053,0.772,1.447c0.514,0.396,1.637,0.939,3.368,1.631
	c1.455,0.582,2.512,1.113,3.17,1.596c0.658,0.484,1.147,1.041,1.465,1.672C71.727,17.227,71.888,17.981,71.888,18.859z"/>
<path fill="#FFFFFF" d="M83.955,24.373c-2.23,0-3.961-0.828-5.192-2.486H78.54c0.149,1.537,0.223,2.471,0.223,2.801v7.455H75.02
	V5.836h3.026c0.085,0.342,0.26,1.154,0.526,2.438h0.191c1.168-1.844,2.92-2.766,5.256-2.766c2.199,0,3.91,0.824,5.136,2.469
	c1.226,1.646,1.84,3.957,1.84,6.932c0,2.973-0.624,5.294-1.872,6.962C87.876,23.539,86.154,24.373,83.955,24.373z M83.047,8.668
	c-1.487,0-2.572,0.451-3.257,1.352c-0.686,0.898-1.027,2.338-1.027,4.312v0.576c0,2.217,0.339,3.822,1.02,4.814
	c0.679,0.994,1.788,1.49,3.328,1.49c1.295,0,2.294-0.549,2.995-1.646c0.7-1.098,1.051-2.66,1.051-4.691
	c0-2.041-0.348-3.586-1.043-4.635C85.417,9.194,84.396,8.668,83.047,8.668z"/>
<path fill="#FFFFFF" d="M102.123,24.373c-2.74,0-4.882-0.824-6.427-2.476c-1.545-1.652-2.317-3.925-2.317-6.824
	c0-2.973,0.716-5.311,2.15-7.012c1.434-1.701,3.403-2.553,5.909-2.553c2.326,0,4.162,0.731,5.511,2.19
	c1.348,1.461,2.023,3.469,2.023,6.025v2.09H97.233c0.053,1.768,0.515,3.125,1.386,4.076c0.871,0.947,2.098,1.424,3.679,1.424
	c1.041,0,2.01-0.104,2.907-0.307c0.898-0.201,1.861-0.539,2.891-1.012v3.145c-0.913,0.449-1.837,0.768-2.772,0.955
	C104.39,24.281,103.323,24.373,102.123,24.373z M101.438,8.44c-1.189,0-2.143,0.389-2.859,1.168
	c-0.716,0.779-1.144,1.914-1.282,3.408h7.996c-0.021-1.504-0.372-2.643-1.051-3.416C103.562,8.825,102.627,8.44,101.438,8.44z"/>
<path fill="#FFFFFF" d="M121.247,5.508c0.754,0,1.375,0.055,1.864,0.164l-0.366,3.605c-0.532-0.131-1.083-0.197-1.656-0.197
	c-1.498,0-2.711,0.504-3.64,1.516c-0.93,1.008-1.394,2.32-1.394,3.934v9.515h-3.743V5.836h2.93l0.495,3.211h0.191
	c0.583-1.086,1.346-1.947,2.285-2.584C119.153,5.827,120.164,5.508,121.247,5.508z"/>
<path fill="#FFFFFF" d="M136.484,24.045l-0.748-2.535h-0.127c-0.852,1.107-1.705,1.863-2.566,2.262
	c-0.86,0.402-1.964,0.601-3.313,0.601c-1.729,0-3.081-0.482-4.053-1.447c-0.972-0.967-1.457-2.332-1.457-4.1
	c0-1.877,0.674-3.293,2.022-4.248c1.349-0.955,3.404-1.476,6.164-1.562l3.043-0.1v-0.971c0-1.164-0.262-2.033-0.788-2.609
	c-0.526-0.576-1.341-0.865-2.444-0.865c-0.903,0-1.769,0.139-2.598,0.412c-0.827,0.275-1.623,0.598-2.389,0.971l-1.211-2.766
	c0.957-0.516,2.002-0.908,3.139-1.176c1.135-0.27,2.207-0.404,3.217-0.404c2.24,0,3.932,0.506,5.073,1.516
	c1.141,1.01,1.712,2.596,1.712,4.758v12.263H136.484z M130.91,21.41c1.358,0,2.449-0.393,3.272-1.178
	c0.823-0.783,1.234-1.885,1.234-3.298v-1.58l-2.262,0.098c-1.762,0.066-3.045,0.371-3.846,0.914
	c-0.802,0.543-1.204,1.373-1.204,2.494c0,0.812,0.234,1.439,0.703,1.885C129.274,21.188,129.975,21.41,130.91,21.41z"/>
<g>
	<path fill="#FFFFFF" d="M159.783,24.039l-0.402-2.877h-0.131c-0.883,1.17-1.793,2-2.727,2.484s-2.037,0.726-3.309,0.726
		c-1.726,0-3.068-0.457-4.029-1.371c-0.961-0.914-1.44-2.18-1.44-3.797c0-1.771,0.715-3.15,2.145-4.128
		c1.428-0.983,3.499-1.5,6.204-1.557l3.351-0.102v-1.203c0-1.728-0.342-3.031-1.019-3.914c-0.68-0.881-1.775-1.32-3.285-1.32
		c-1.629,0-3.318,0.469-5.065,1.404l-0.599-1.439c1.931-0.934,3.839-1.402,5.728-1.402c1.932,0,3.373,0.517,4.328,1.555
		c0.955,1.037,1.432,2.654,1.432,4.85v12.091H159.783z M153.312,22.869c1.875,0,3.357-0.555,4.441-1.666
		c1.084-1.107,1.627-2.65,1.627-4.622V14.79l-3.076,0.135c-2.471,0.123-4.232,0.521-5.283,1.197
		c-1.052,0.674-1.576,1.725-1.576,3.15c0,1.139,0.335,2.021,1.01,2.65C151.129,22.553,152.082,22.869,153.312,22.869z"/>
	<path fill="#FFFFFF" d="M176.641,19.305c0,1.629-0.602,2.881-1.799,3.756c-1.195,0.875-2.896,1.312-5.096,1.312
		c-2.352,0-4.219-0.375-5.6-1.119v-1.791c1.772,0.914,3.637,1.371,5.6,1.371c1.736,0,3.055-0.297,3.957-0.894
		c0.902-0.596,1.35-1.391,1.35-2.383c0-0.914-0.359-1.683-1.076-2.306c-0.717-0.627-1.895-1.24-3.533-1.84
		c-1.76-0.658-2.994-1.225-3.707-1.699c-0.711-0.473-1.248-1.008-1.611-1.605c-0.359-0.596-0.541-1.322-0.541-2.182
		c0-1.359,0.553-2.438,1.66-3.229c1.104-0.791,2.648-1.185,4.635-1.185c1.898,0,3.699,0.367,5.404,1.102l-0.598,1.508
		c-1.726-0.738-3.328-1.105-4.807-1.105c-1.436,0-2.572,0.246-3.416,0.736c-0.84,0.492-1.26,1.17-1.26,2.041
		c0,0.947,0.324,1.705,0.979,2.273c0.652,0.568,1.93,1.203,3.824,1.906c1.588,0.592,2.74,1.123,3.465,1.598
		c0.723,0.473,1.266,1.012,1.627,1.613C176.459,17.786,176.641,18.492,176.641,19.305z"/>
	<path fill="#FFFFFF" d="M191.146,19.305c0,1.629-0.596,2.881-1.795,3.756c-1.195,0.875-2.895,1.312-5.096,1.312
		c-2.352,0-4.219-0.375-5.598-1.119v-1.791c1.768,0.914,3.635,1.371,5.598,1.371c1.736,0,3.057-0.297,3.957-0.894
		c0.898-0.596,1.35-1.391,1.35-2.383c0-0.914-0.359-1.683-1.076-2.306c-0.719-0.627-1.895-1.24-3.535-1.84
		c-1.758-0.658-2.994-1.225-3.705-1.699c-0.713-0.473-1.25-1.008-1.609-1.605c-0.365-0.596-0.543-1.322-0.543-2.182
		c0-1.359,0.553-2.438,1.658-3.229c1.105-0.791,2.652-1.185,4.637-1.185c1.898,0,3.699,0.367,5.402,1.102l-0.598,1.508
		c-1.727-0.738-3.328-1.105-4.805-1.105c-1.434,0-2.574,0.246-3.414,0.736c-0.844,0.492-1.264,1.17-1.264,2.041
		c0,0.947,0.326,1.705,0.979,2.273c0.652,0.568,1.93,1.203,3.828,1.906c1.586,0.592,2.74,1.123,3.461,1.598
		c0.725,0.473,1.268,1.012,1.629,1.613C190.967,17.786,191.146,18.492,191.146,19.305z"/>
	<path fill="#FFFFFF" d="M201.855,24.373c-2.557,0-4.553-0.814-5.978-2.441c-1.432-1.629-2.145-3.908-2.145-6.839
		c0-2.9,0.688-5.221,2.072-6.965c1.379-1.746,3.24-2.617,5.58-2.617c2.072,0,3.705,0.746,4.904,2.24
		c1.199,1.494,1.795,3.522,1.795,6.086v1.34h-12.67c0.023,2.496,0.584,4.402,1.691,5.718c1.105,1.316,2.688,1.975,4.75,1.975
		c1.002,0,1.883-0.072,2.645-0.219c0.762-0.145,1.725-0.457,2.889-0.938v1.506c-0.992,0.447-1.91,0.75-2.75,0.912
		C203.797,24.291,202.867,24.373,201.855,24.373z M201.385,6.981c-1.693,0-3.051,0.576-4.076,1.732
		c-1.025,1.152-1.623,2.816-1.797,4.99h10.875c0-2.107-0.443-3.754-1.328-4.941C204.174,7.575,202.949,6.981,201.385,6.981z"/>
	<path fill="#FFFFFF" d="M222.916,19.305c0,1.629-0.598,2.881-1.795,3.756c-1.197,0.875-2.896,1.312-5.098,1.312
		c-2.354,0-4.217-0.375-5.6-1.119v-1.791c1.77,0.914,3.637,1.371,5.6,1.371c1.736,0,3.057-0.297,3.957-0.894
		c0.9-0.596,1.352-1.391,1.352-2.383c0-0.914-0.359-1.683-1.078-2.306c-0.717-0.627-1.895-1.24-3.535-1.84
		c-1.758-0.658-2.99-1.225-3.705-1.699c-0.711-0.473-1.248-1.008-1.611-1.605c-0.359-0.596-0.541-1.322-0.541-2.182
		c0-1.359,0.553-2.438,1.658-3.229c1.106-0.791,2.652-1.185,4.639-1.185c1.896,0,3.697,0.367,5.404,1.102l-0.6,1.508
		c-1.725-0.738-3.328-1.105-4.805-1.105c-1.438,0-2.574,0.246-3.416,0.736c-0.84,0.492-1.264,1.17-1.264,2.041
		c0,0.947,0.33,1.705,0.981,2.273c0.654,0.568,1.928,1.203,3.826,1.906c1.586,0.592,2.738,1.123,3.463,1.598
		c0.725,0.473,1.264,1.012,1.627,1.613C222.736,17.786,222.916,18.492,222.916,19.305z"/>
	<path fill="#FFFFFF" d="M237.426,19.305c0,1.629-0.598,2.881-1.797,3.756c-1.197,0.875-2.895,1.312-5.098,1.312
		c-2.352,0-4.219-0.375-5.596-1.119v-1.791c1.768,0.914,3.633,1.371,5.596,1.371c1.738,0,3.057-0.297,3.957-0.894
		c0.902-0.596,1.352-1.391,1.352-2.383c0-0.914-0.359-1.683-1.076-2.306c-0.715-0.627-1.896-1.24-3.535-1.84
		c-1.76-0.658-2.994-1.225-3.705-1.699c-0.713-0.473-1.25-1.008-1.609-1.605c-0.363-0.596-0.545-1.322-0.545-2.182
		c0-1.359,0.555-2.438,1.66-3.229s2.652-1.185,4.637-1.185c1.896,0,3.699,0.367,5.402,1.102l-0.598,1.508
		c-1.727-0.738-3.328-1.105-4.805-1.105c-1.436,0-2.574,0.246-3.414,0.736c-0.844,0.492-1.264,1.17-1.264,2.041
		c0,0.947,0.326,1.705,0.979,2.273c0.654,0.568,1.932,1.203,3.828,1.906c1.586,0.592,2.74,1.123,3.461,1.598
		c0.725,0.473,1.268,1.012,1.629,1.613C237.246,17.786,237.426,18.492,237.426,19.305z"/>
	<path fill="#FFFFFF" d="M263.004,24.039V12.116c0-1.773-0.336-3.066-1.004-3.881c-0.67-0.815-1.693-1.221-3.074-1.221
		c-1.803,0-3.135,0.512-3.998,1.539c-0.863,1.025-1.295,2.637-1.295,4.834v10.652h-1.635V11.614c0-3.066-1.357-4.6-4.074-4.6
		c-1.846,0-3.188,0.555-4.031,1.664c-0.84,1.109-1.262,2.885-1.262,5.326v10.035h-1.602V5.86h1.326l0.342,2.492h0.096
		c0.484-0.902,1.176-1.602,2.07-2.1c0.896-0.496,1.885-0.742,2.963-0.742c2.771,0,4.553,1.076,5.34,3.227h0.064
		c0.57-1.037,1.34-1.834,2.305-2.393c0.967-0.557,2.064-0.834,3.293-0.834c1.92,0,3.359,0.529,4.32,1.588
		c0.961,1.061,1.44,2.742,1.44,5.051v11.89H263.004z"/>
	<path fill="#FFFFFF" d="M276.459,24.373c-2.555,0-4.549-0.814-5.977-2.441c-1.432-1.629-2.145-3.908-2.145-6.839
		c0-2.9,0.688-5.221,2.072-6.965c1.377-1.746,3.24-2.617,5.58-2.617c2.072,0,3.705,0.746,4.904,2.24
		c1.197,1.494,1.795,3.522,1.795,6.086v1.34h-12.67c0.021,2.496,0.586,4.402,1.691,5.718c1.108,1.316,2.688,1.975,4.748,1.975
		c1.004,0,1.887-0.072,2.646-0.219c0.762-0.145,1.725-0.457,2.891-0.938v1.506c-0.994,0.447-1.91,0.75-2.752,0.912
		C278.4,24.291,277.473,24.373,276.459,24.373z M275.99,6.981c-1.693,0-3.051,0.576-4.078,1.732
		c-1.025,1.152-1.621,2.816-1.797,4.99h10.877c0-2.107-0.445-3.754-1.33-4.941C278.779,7.575,277.555,6.981,275.99,6.981z"/>
	<path fill="#FFFFFF" d="M298.879,24.039V12.248c0-1.828-0.369-3.158-1.115-3.988c-0.742-0.83-1.896-1.246-3.461-1.246
		c-2.103,0-3.642,0.549-4.619,1.648c-0.977,1.098-1.467,2.879-1.467,5.342v10.035h-1.6V5.86h1.357l0.307,2.492h0.1
		c1.142-1.895,3.176-2.842,6.098-2.842c3.994,0,5.988,2.213,5.988,6.639v11.89H298.879z"/>
	<path fill="#FFFFFF" d="M309.879,22.9c1.014,0,1.9-0.088,2.654-0.266v1.336c-0.777,0.27-1.672,0.402-2.685,0.402
		c-1.555,0-2.701-0.43-3.438-1.287c-0.74-0.859-1.111-2.209-1.111-4.047V7.299h-2.604V6.329l2.604-0.752l0.811-4.115h0.824V5.86
		h5.162v1.439h-5.162v11.505c0,1.393,0.238,2.424,0.715,3.094C308.121,22.568,308.865,22.9,309.879,22.9z"/>
</g>
</svg>
